<svg width="24" height="24" viewBox="0 0 24 24" fill="none" xmlns="http://www.w3.org/2000/svg">
<path fill-rule="evenodd" clip-rule="evenodd" d="M12 24C18.6274 24 24 18.6274 24 12C24 5.37256 18.6274 0 12 0C5.37259 0 0 5.37256 0 12C0 18.6274 5.37259 24 12 24ZM18.7071 9.20709C19.0976 8.81659 19.0976 8.18341 18.7071 7.79291C18.3166 7.40234 17.6834 7.40234 17.2929 7.79291L10 15.0858L6.70709 11.7929C6.31659 11.4023 5.68341 11.4023 5.29291 11.7929C4.90237 12.1834 4.90237 12.8166 5.29291 13.2071L10 17.9142L18.7071 9.20709Z" fill="white"/>
</svg>
